<svg xmlns="http://www.w3.org/2000/svg" xmlns:xlink="http://www.w3.org/1999/xlink" viewBox="0 0 300 212"><defs><style>.cls-1{fill:none;}.cls-2,.cls-56,.cls-57,.cls-58,.cls-62,.cls-9{mix-blend-mode:screen;}.cls-3{fill:#003d46;}.cls-4{isolation:isolate;}.cls-5{fill:#d1e2f3;}.cls-10,.cls-5{opacity:0.5;}.cls-10,.cls-5,.cls-54,.cls-67{mix-blend-mode:multiply;}.cls-47,.cls-6{fill:#009898;}.cls-6,.cls-61{opacity:0.2;}.cls-7{fill:url(#linear-gradient);}.cls-8{fill:#112129;}.cls-9{opacity:0.39;fill:url(#New_Pattern);}.cls-11{fill:url(#linear-gradient-2);}.cls-12{fill:url(#linear-gradient-3);}.cls-13{fill:url(#linear-gradient-4);}.cls-14{fill:url(#linear-gradient-5);}.cls-15{fill:url(#linear-gradient-6);}.cls-16{fill:url(#linear-gradient-7);}.cls-17{fill:url(#linear-gradient-8);}.cls-18{fill:url(#linear-gradient-9);}.cls-19{fill:url(#linear-gradient-10);}.cls-20{fill:url(#linear-gradient-11);}.cls-21{fill:url(#linear-gradient-12);}.cls-22{fill:url(#linear-gradient-13);}.cls-23{fill:url(#linear-gradient-14);}.cls-24{fill:url(#linear-gradient-15);}.cls-25{fill:url(#linear-gradient-16);}.cls-26{fill:url(#linear-gradient-17);}.cls-27{fill:url(#linear-gradient-18);}.cls-28{fill:url(#linear-gradient-19);}.cls-29{fill:url(#linear-gradient-20);}.cls-30{fill:url(#linear-gradient-21);}.cls-31{fill:url(#linear-gradient-22);}.cls-32{fill:url(#linear-gradient-23);}.cls-33{fill:url(#linear-gradient-24);}.cls-34{fill:url(#linear-gradient-25);}.cls-35{fill:url(#linear-gradient-26);}.cls-36{fill:url(#linear-gradient-27);}.cls-37{fill:url(#linear-gradient-28);}.cls-38{fill:url(#linear-gradient-29);}.cls-39{fill:url(#linear-gradient-30);}.cls-40{fill:url(#linear-gradient-31);}.cls-41{fill:url(#linear-gradient-32);}.cls-42{fill:url(#linear-gradient-33);}.cls-43{font-size:6.02px;}.cls-43,.cls-44,.cls-45,.cls-50{fill:#fff;}.cls-43,.cls-44,.cls-45{font-family:Poppins-Bold, Poppins;font-weight:700;}.cls-44{font-size:7.65px;}.cls-45{font-size:4.92px;}.cls-46{opacity:0.1;}.cls-48,.cls-54{fill:#2ab4ad;}.cls-49{fill:#eec8b9;}.cls-51{fill:url(#linear-gradient-34);}.cls-52{fill:#09181e;}.cls-53{fill:#ecf3fa;}.cls-55{fill:#2ccdc8;}.cls-56{fill:url(#linear-gradient-35);}.cls-57{fill:url(#linear-gradient-36);}.cls-58{fill:url(#linear-gradient-37);}.cls-59{fill:url(#linear-gradient-38);}.cls-60{fill:url(#linear-gradient-39);}.cls-61{fill:#0096f0;}.cls-62{opacity:0.7;}.cls-63{fill:url(#linear-gradient-40);}.cls-64{fill:url(#linear-gradient-41);}.cls-65{fill:url(#linear-gradient-42);}.cls-66{fill:url(#linear-gradient-43);}.cls-68{fill:#fff9f2;}.cls-68,.cls-69{stroke:#2ccdc8;stroke-miterlimit:10;}.cls-69{fill:#ffd8b2;}</style><linearGradient id="linear-gradient" x1="195.35" y1="96.81" x2="271.49" y2="96.81" gradientUnits="userSpaceOnUse"><stop offset="0" stop-color="#00a9f5"/><stop offset="0.04" stop-color="#2ccdc8"/><stop offset="1" stop-color="#2ab4ad"/></linearGradient><pattern id="New_Pattern" data-name="New Pattern" width="18.96" height="18.96" patternTransform="translate(-6371.98 -162.41) scale(12.14)" patternUnits="userSpaceOnUse" viewBox="0 0 18.96 18.96"><rect class="cls-1" width="18.96" height="18.96"/><g class="cls-2"><path class="cls-3" d="M15.8,0,0,15.8V14.22L14.22,0ZM9.48,0,0,9.48V4.74L4.74,0ZM19,9.48,9.48,19H4.74L19,4.74Zm0,4.74V15.8L15.8,19H14.22Z"/></g></pattern><linearGradient id="linear-gradient-2" x1="203.81" y1="123.92" x2="216.99" y2="123.92" gradientUnits="userSpaceOnUse"><stop offset="0.05" stop-color="#88bcfa"/><stop offset="1" stop-color="#aed0fb"/></linearGradient><linearGradient id="linear-gradient-3" x1="219.81" y1="123.92" x2="232.99" y2="123.92" xlink:href="#linear-gradient-2"/><linearGradient id="linear-gradient-4" x1="235.81" y1="123.92" x2="248.98" y2="123.92" xlink:href="#linear-gradient-2"/><linearGradient id="linear-gradient-5" x1="251.8" y1="123.92" x2="264.98" y2="123.92" xlink:href="#linear-gradient-2"/><linearGradient id="linear-gradient-6" x1="203.81" y1="140.27" x2="216.99" y2="140.27" xlink:href="#linear-gradient-2"/><linearGradient id="linear-gradient-7" x1="219.81" y1="140.27" x2="232.99" y2="140.27" xlink:href="#linear-gradient-2"/><linearGradient id="linear-gradient-8" x1="235.81" y1="140.27" x2="248.98" y2="140.27" xlink:href="#linear-gradient-2"/><linearGradient id="linear-gradient-9" x1="251.8" y1="140.27" x2="264.98" y2="140.27" xlink:href="#linear-gradient-2"/><linearGradient id="linear-gradient-10" x1="203.81" y1="156.62" x2="216.99" y2="156.62" xlink:href="#linear-gradient-2"/><linearGradient id="linear-gradient-11" x1="219.81" y1="156.62" x2="232.99" y2="156.62" xlink:href="#linear-gradient-2"/><linearGradient id="linear-gradient-12" x1="235.81" y1="156.62" x2="248.98" y2="156.62" xlink:href="#linear-gradient-2"/><linearGradient id="linear-gradient-13" x1="251.8" y1="156.62" x2="264.98" y2="156.62" xlink:href="#linear-gradient-2"/><linearGradient id="linear-gradient-14" x1="203.81" y1="172.97" x2="216.99" y2="172.97" xlink:href="#linear-gradient-2"/><linearGradient id="linear-gradient-15" x1="219.81" y1="172.97" x2="232.99" y2="172.97" xlink:href="#linear-gradient-2"/><linearGradient id="linear-gradient-16" x1="235.81" y1="172.97" x2="248.98" y2="172.97" xlink:href="#linear-gradient-2"/><linearGradient id="linear-gradient-17" x1="251.8" y1="172.97" x2="264.98" y2="172.97" xlink:href="#linear-gradient-2"/><linearGradient id="linear-gradient-18" x1="202.84" y1="122.95" x2="216.01" y2="122.95" xlink:href="#linear-gradient"/><linearGradient id="linear-gradient-19" x1="218.83" y1="122.95" x2="232.01" y2="122.95" xlink:href="#linear-gradient"/><linearGradient id="linear-gradient-20" x1="234.83" y1="122.95" x2="248.01" y2="122.95" xlink:href="#linear-gradient"/><linearGradient id="linear-gradient-21" x1="250.83" y1="122.95" x2="264.01" y2="122.95" xlink:href="#linear-gradient"/><linearGradient id="linear-gradient-22" x1="202.84" y1="139.3" x2="216.01" y2="139.3" xlink:href="#linear-gradient"/><linearGradient id="linear-gradient-23" x1="218.83" y1="139.3" x2="232.01" y2="139.3" xlink:href="#linear-gradient"/><linearGradient id="linear-gradient-24" x1="234.83" y1="139.3" x2="248.01" y2="139.3" xlink:href="#linear-gradient"/><linearGradient id="linear-gradient-25" x1="250.83" y1="139.3" x2="264.01" y2="139.3" xlink:href="#linear-gradient"/><linearGradient id="linear-gradient-26" x1="202.84" y1="155.65" x2="216.01" y2="155.65" xlink:href="#linear-gradient"/><linearGradient id="linear-gradient-27" x1="218.83" y1="155.65" x2="232.01" y2="155.65" xlink:href="#linear-gradient"/><linearGradient id="linear-gradient-28" x1="234.83" y1="155.65" x2="248.01" y2="155.65" xlink:href="#linear-gradient"/><linearGradient id="linear-gradient-29" x1="250.83" y1="155.65" x2="264.01" y2="155.65" xlink:href="#linear-gradient"/><linearGradient id="linear-gradient-30" x1="202.84" y1="172" x2="216.01" y2="172" xlink:href="#linear-gradient"/><linearGradient id="linear-gradient-31" x1="218.83" y1="172" x2="232.01" y2="172" xlink:href="#linear-gradient"/><linearGradient id="linear-gradient-32" x1="234.83" y1="172" x2="248.01" y2="172" xlink:href="#linear-gradient"/><linearGradient id="linear-gradient-33" x1="250.83" y1="172" x2="264.01" y2="172" xlink:href="#linear-gradient"/><linearGradient id="linear-gradient-34" x1="220.19" y1="146.43" x2="220.19" y2="168.7" gradientUnits="userSpaceOnUse"><stop offset="0.06" stop-color="#fc8100"/><stop offset="1" stop-color="#ff5700"/></linearGradient><linearGradient id="linear-gradient-35" x1="40.42" y1="151.56" x2="44.13" y2="151.56" gradientUnits="userSpaceOnUse"><stop offset="0" stop-color="#008aee"/><stop offset="1" stop-color="#009ff0"/></linearGradient><linearGradient id="linear-gradient-36" x1="28.25" y1="155.49" x2="37.46" y2="155.49" xlink:href="#linear-gradient-35"/><linearGradient id="linear-gradient-37" x1="48.29" y1="154.46" x2="56.84" y2="154.46" xlink:href="#linear-gradient-35"/><linearGradient id="linear-gradient-38" x1="11266.67" y1="102.71" x2="11291.75" y2="102.71" gradientTransform="matrix(-1, 0, 0, 1, 11387.73, 0)" xlink:href="#linear-gradient-34"/><linearGradient id="linear-gradient-39" x1="11282.97" y1="108.63" x2="11309.92" y2="108.63" gradientTransform="matrix(-1, 0, 0, 1, 11387.73, 0)" xlink:href="#linear-gradient-34"/><linearGradient id="linear-gradient-40" x1="11239.61" y1="114.48" x2="11322.1" y2="114.48" gradientTransform="matrix(-1, 0, 0, 1, 11387.73, 0)" gradientUnits="userSpaceOnUse"><stop offset="0" stop-color="#00a9f5"/><stop offset="1" stop-color="#0078ee"/></linearGradient><linearGradient id="linear-gradient-41" x1="11277.72" y1="127.33" x2="11322.27" y2="127.33" gradientTransform="matrix(0.83, 0.56, 0.56, -0.83, -9370.27, -6057.5)" xlink:href="#linear-gradient-40"/><linearGradient id="linear-gradient-42" x1="11289.86" y1="91.98" x2="11297.91" y2="91.98" gradientTransform="matrix(-1, 0, 0, 1, 11387.73, 0)" xlink:href="#linear-gradient-34"/><linearGradient id="linear-gradient-43" x1="11297.72" y1="105.32" x2="11309.49" y2="105.32" gradientTransform="matrix(-1, 0, 0, 1, 11387.73, 0)" xlink:href="#linear-gradient-34"/></defs><title>Vector Images</title><g class="cls-4"><g id="Layer_1" data-name="Layer 1"><ellipse class="cls-5" cx="150" cy="186.43" rx="143.2" ry="11.86"/><rect class="cls-6" x="195.35" y="82.72" width="76.14" height="103.14" rx="11.24" ry="11.24"/><path class="cls-7" d="M206.59,82.72h53.65A11.24,11.24,0,0,1,271.49,94v16.94a0,0,0,0,1,0,0H195.35a0,0,0,0,1,0,0V94A11.24,11.24,0,0,1,206.59,82.72Z"/><rect class="cls-8" x="202.84" y="88.82" width="61.17" height="15.98" rx="2.9" ry="2.9"/><rect class="cls-9" x="202.84" y="88.82" width="61.17" height="15.98" rx="2.9" ry="2.9"/><g class="cls-10"><rect class="cls-11" x="203.81" y="117.33" width="13.18" height="13.18" rx="1.01" ry="1.01"/><rect class="cls-12" x="219.81" y="117.33" width="13.18" height="13.18" rx="1.01" ry="1.01"/><rect class="cls-13" x="235.81" y="117.33" width="13.18" height="13.18" rx="1.01" ry="1.01"/><rect class="cls-14" x="251.8" y="117.33" width="13.18" height="13.18" rx="1.01" ry="1.01"/><rect class="cls-15" x="203.81" y="133.68" width="13.18" height="13.18" rx="1.01" ry="1.01"/><rect class="cls-16" x="219.81" y="133.68" width="13.18" height="13.18" rx="1.01" ry="1.01"/><rect class="cls-17" x="235.81" y="133.68" width="13.18" height="13.18" rx="1.01" ry="1.01"/><rect class="cls-18" x="251.8" y="133.68" width="13.18" height="13.18" rx="1.01" ry="1.01"/><rect class="cls-19" x="203.81" y="150.03" width="13.18" height="13.18" rx="1.01" ry="1.01"/><rect class="cls-20" x="219.81" y="150.03" width="13.18" height="13.18" rx="1.01" ry="1.01"/><rect class="cls-21" x="235.81" y="150.03" width="13.18" height="13.18" rx="1.01" ry="1.01"/><rect class="cls-22" x="251.8" y="150.03" width="13.18" height="13.18" rx="1.01" ry="1.01"/><rect class="cls-23" x="203.81" y="166.38" width="13.18" height="13.18" rx="1.01" ry="1.01"/><rect class="cls-24" x="219.81" y="166.38" width="13.18" height="13.18" rx="1.01" ry="1.01"/><rect class="cls-25" x="235.81" y="166.38" width="13.18" height="13.18" rx="1.01" ry="1.01"/><rect class="cls-26" x="251.8" y="166.38" width="13.18" height="13.18" rx="1.01" ry="1.01"/></g><rect class="cls-27" x="202.84" y="116.36" width="13.18" height="13.18" rx="1.92" ry="1.92"/><rect class="cls-28" x="218.83" y="116.36" width="13.18" height="13.18" rx="1.92" ry="1.92"/><rect class="cls-29" x="234.83" y="116.36" width="13.18" height="13.18" rx="1.92" ry="1.92"/><rect class="cls-30" x="250.83" y="116.36" width="13.18" height="13.18" rx="1.92" ry="1.92"/><rect class="cls-31" x="202.84" y="132.71" width="13.18" height="13.18" rx="1.92" ry="1.92"/><rect class="cls-32" x="218.83" y="132.71" width="13.18" height="13.18" rx="1.92" ry="1.92"/><rect class="cls-33" x="234.83" y="132.71" width="13.18" height="13.18" rx="1.92" ry="1.92"/><rect class="cls-34" x="250.83" y="132.71" width="13.18" height="13.18" rx="1.92" ry="1.92"/><rect class="cls-35" x="202.84" y="149.06" width="13.18" height="13.18" rx="1.92" ry="1.92"/><rect class="cls-36" x="218.83" y="149.06" width="13.18" height="13.18" rx="1.92" ry="1.92"/><rect class="cls-37" x="234.83" y="149.06" width="13.18" height="13.18" rx="1.92" ry="1.92"/><rect class="cls-38" x="250.83" y="149.06" width="13.18" height="13.18" rx="1.92" ry="1.92"/><rect class="cls-39" x="202.84" y="165.41" width="13.18" height="13.18" rx="1.92" ry="1.92"/><rect class="cls-40" x="218.83" y="165.41" width="13.18" height="13.18" rx="1.92" ry="1.92"/><rect class="cls-41" x="234.83" y="165.41" width="13.18" height="13.18" rx="1.92" ry="1.92"/><rect class="cls-42" x="250.83" y="165.41" width="13.18" height="13.18" rx="1.92" ry="1.92"/><text class="cls-43" transform="translate(207.82 125.23)">7</text><text class="cls-43" transform="translate(223.6 125.23)">8</text><text class="cls-43" transform="translate(239.38 125.23)">9</text><text class="cls-43" transform="translate(207.82 141.72)">4</text><text class="cls-43" transform="translate(223.6 141.72)">5</text><text class="cls-43" transform="translate(239.38 141.72)">6</text><text class="cls-43" transform="translate(208.46 157.98)">1</text><text class="cls-43" transform="translate(223.6 157.98)">2</text><text class="cls-43" transform="translate(207.66 174.13)">0</text><text class="cls-43" transform="translate(224.69 172.8)">.</text><text class="cls-44" transform="translate(238.82 174.57)">=</text><text class="cls-44" transform="translate(255.29 173.82)">x</text><text class="cls-44" transform="translate(255.37 142.27)">-</text><text class="cls-44" transform="translate(255.29 125.77)">+</text><text class="cls-45" transform="translate(256.52 157.25)">/</text><text class="cls-43" transform="translate(239.38 157.98)">3</text><g class="cls-46"><g id="_Group_" data-name="&lt;Group&gt;"><path class="cls-47" d="M216.45,19.79V164.71a20.92,20.92,0,0,1-20.92,20.92H91.84V15.92c3,0,3,3.87,5.94,3.87s3-3.87,5.94-3.87,3,3.87,5.93,3.87,3-3.87,5.93-3.87,3,3.87,5.93,3.87,3-3.87,5.93-3.87,3,3.87,5.93,3.87,3-3.87,5.93-3.87,3,3.87,5.93,3.87,3-3.87,5.93-3.87,3,3.87,5.93,3.87,3-3.87,5.92-3.87,3,3.87,5.93,3.87,3-3.87,5.93-3.87,3,3.87,5.93,3.87,3-3.87,5.93-3.87,3,3.87,5.93,3.87,3-3.87,5.93-3.87,3,3.87,5.93,3.87,3-3.87,5.92-3.87S213.49,19.79,216.45,19.79Z"/></g></g><rect class="cls-48" x="150.02" y="39.67" width="37.18" height="2.22"/><rect class="cls-48" x="150.02" y="46.62" width="37.18" height="2.22"/><rect class="cls-48" x="150.02" y="53.56" width="37.18" height="2.22"/><rect class="cls-48" x="101.06" y="60.51" width="86.13" height="2.22"/><rect class="cls-48" x="101.06" y="67.46" width="86.13" height="2.22"/><rect class="cls-48" x="101.06" y="74.41" width="86.13" height="2.22"/><rect class="cls-48" x="101.06" y="81.35" width="86.13" height="2.22"/><rect class="cls-48" x="101.06" y="88.3" width="86.13" height="2.22"/><rect class="cls-48" x="101.06" y="95.25" width="86.13" height="2.22"/><rect class="cls-48" x="101.06" y="116.75" width="86.13" height="2.22"/><rect class="cls-48" x="101.06" y="123.88" width="86.13" height="2.22"/><rect class="cls-48" x="101.06" y="131" width="86.13" height="2.22"/><rect class="cls-48" x="101.06" y="138.12" width="86.13" height="2.22"/><rect class="cls-48" x="101.06" y="145.25" width="86.13" height="2.22"/><rect class="cls-48" x="101.06" y="152.37" width="86.13" height="2.22"/><rect class="cls-48" x="101.06" y="159.49" width="86.13" height="2.22"/><rect class="cls-48" x="91.91" y="106.36" width="103.44" height="1.56"/><g id="_Group_2" data-name="&lt;Group&gt;"><path class="cls-49" d="M220,140.09h.11a10.23,10.23,0,0,0,3.13-1.1v2.28a3.08,3.08,0,0,1-6.12,0v-2.07l0,0A10.27,10.27,0,0,0,220,140.09Z"/><path class="cls-49" d="M220.1,140.09H220a10.27,10.27,0,0,1-2.84-.95,5.12,5.12,0,0,1-3.07-3.73s-1.61-.7-1.58-2,1.42-1,1.42-1-1.16-4.13,1-7.18,5-2.11,5-2.11h.22s2.81-.95,5,2.11,1,7.18,1,7.18,1.4-.35,1.42,1-1.56,2-1.56,2a5,5,0,0,1-2.78,3.58A10.23,10.23,0,0,1,220.1,140.09Z"/><path class="cls-50" d="M233.55,172.85l0,.08a100.38,100.38,0,0,0-13.39,6.79,101.64,101.64,0,0,0-13.38-6.79l0-.08v-9.2h26.72v9.2Z"/><path class="cls-49" d="M206.83,172.85l0,.08c-1.17-.46-2.35-.87-3.45-1.19-2.81-2.28-6.65-5.59-7.08-7-.35-1.12,1.16-4.39,3.07-8h0l6.28,3.55c-.85,1.54-1.58,3-1.44,3.39a18.51,18.51,0,0,0,2.57,3.27h0Z"/><path class="cls-49" d="M233.55,172.85V167h0a19.2,19.2,0,0,0,2.57-3.27c.14-.38-.59-1.86-1.44-3.39l6.28-3.55h0c1.91,3.58,3.42,6.84,3.07,8-.43,1.41-4.26,4.72-7.07,7-1.1.32-2.28.73-3.46,1.2Z"/><path class="cls-51" d="M220.1,163.65H208.27v-.22c.14-2.32-.17-7.21-.17-7.21s-1.34,2.12-2.44,4.12l-6.28-3.55h0c2-3.69,4.36-7.71,5.61-10,2.49-4.58,12.16-5.5,12.16-5.5a3.08,3.08,0,0,0,6.12,0s9.69.91,12.18,5.49c1.26,2.32,3.66,6.34,5.61,10h0l-6.28,3.55c-1.1-2-2.44-4.12-2.44-4.12s-.31,4.89-.18,7.21v.22h-12Z"/></g><path class="cls-52" d="M231.64,188.73s-32.13-2.85-35.38-9.84c-2.4-5.15,2.68-9.27,8.54-7.24S231.72,184,231.72,184Z"/><path class="cls-52" d="M233.69,184.83V189s5.5.36,5.85-.25.78-2.84-.61-3.9S234.13,183.73,233.69,184.83Z"/><polygon class="cls-49" points="231.58 184.01 233.73 184.81 233.73 188.96 231.5 188.73 231.58 184.01"/><path class="cls-8" d="M208.74,188.73s32.13-2.85,35.38-9.84c2.4-5.15-2.68-9.27-8.54-7.24S208.66,184,208.66,184Z"/><polygon class="cls-49" points="208.74 184.01 206.59 184.81 206.59 188.96 208.82 188.73 208.74 184.01"/><path class="cls-8" d="M206.63,184.83V189s-5.5.36-5.85-.25-.78-2.84.61-3.9S206.19,183.73,206.63,184.83Z"/><path class="cls-8" d="M214.46,133.79s.31-4.46,2.11-5.59l-.57,1.13a13.69,13.69,0,0,1,3.37-2c1.21-.31,2.75-.56,3.49-1.22,0,0,.82,1.35,1.68,2.72s1.51,1.88,1.73,4.22c0,0,.89-3.37.3-5.18a3.59,3.59,0,0,1,.59,1.91s1-5.47-2.87-6.48a5.26,5.26,0,0,0-4-1.92,6.4,6.4,0,0,0-3.46.67,3.27,3.27,0,0,0-2.25,1.76l1.19-.68a6.44,6.44,0,0,0-2.59,6l.41-.86A10,10,0,0,0,214.46,133.79Z"/><rect class="cls-53" x="33.29" y="26.83" width="53.77" height="53.77" rx="4.15" ry="4.15"/><path class="cls-54" d="M48.33,64.35c3.46-2.93,7.08-5.64,7.08-8.44,0-1.36-.61-2.28-2.05-2.28s-2.18,1-2.2,2.62H48.31c.1-3.5,2.35-5.11,5.09-5.11,3.29,0,4.94,1.95,4.94,4.61,0,3.54-3.41,6.31-5.85,8.36h6.18v2.43H48.33Z"/><path class="cls-54" d="M66.19,51.17c4.32,0,5.66,3.31,5.66,7.73s-1.34,7.79-5.66,7.79-5.66-3.33-5.66-7.79S61.87,51.17,66.19,51.17Zm0,2.72c-2.47,0-2.77,2.39-2.77,5S63.71,64,66.19,64,69,61.63,69,58.9,68.66,53.89,66.19,53.89Z"/><path class="cls-55" d="M37.44,26.83H82.91A4.15,4.15,0,0,1,87.06,31v8.79a0,0,0,0,1,0,0H33.29a0,0,0,0,1,0,0V31A4.15,4.15,0,0,1,37.44,26.83Z"/><circle class="cls-54" cx="41.12" cy="33.62" r="1.71"/><circle class="cls-54" cx="50.65" cy="33.62" r="1.71"/><circle class="cls-54" cx="60.17" cy="33.62" r="1.71"/><circle class="cls-54" cx="69.7" cy="33.62" r="1.71"/><circle class="cls-54" cx="79.23" cy="33.62" r="1.71"/><path class="cls-50" d="M41.21,33.72h0a.89.89,0,0,1-.89-.89V26.26a.89.89,0,0,1,.89-.89h0a.89.89,0,0,1,.89.89v6.56A.89.89,0,0,1,41.21,33.72Z"/><path class="cls-50" d="M50.6,33.72h0a.89.89,0,0,1-.89-.89V26.26a.89.89,0,0,1,.89-.89h0a.89.89,0,0,1,.89.89v6.56A.89.89,0,0,1,50.6,33.72Z"/><path class="cls-50" d="M60.17,33.72h0a.89.89,0,0,1-.89-.89V26.26a.89.89,0,0,1,.89-.89h0a.89.89,0,0,1,.89.89v6.56A.89.89,0,0,1,60.17,33.72Z"/><path class="cls-50" d="M69.69,33.72h0a.89.89,0,0,1-.89-.89V26.26a.89.89,0,0,1,.89-.89h0a.89.89,0,0,1,.89.89v6.56A.89.89,0,0,1,69.69,33.72Z"/><path class="cls-50" d="M79.26,33.72h0a.89.89,0,0,1-.89-.89V26.26a.89.89,0,0,1,.89-.89h0a.89.89,0,0,1,.89.89v6.56A.89.89,0,0,1,79.26,33.72Z"/><path class="cls-55" d="M42.56,173.55c-.81-1.86-4.07-9-4.87-13.56s-3.26-8.21-3.33-10.48,3.65-3.6,4.62-8.25,2.93-12.24,4.13-12,2,8.56,3.18,10.61,4.25,4.61,1.85,7.57S47,153.94,49.23,157s-4,6.94-3.42,11.14a34.71,34.71,0,0,1-.55,9.86Z"/><path class="cls-56" d="M43.64,164.58a.37.37,0,0,1-.36-.33,24,24,0,0,0-1.82-6.58,11.56,11.56,0,0,1-1-3.58,5.43,5.43,0,0,1,1.42-3.36,6.9,6.9,0,0,0,1.53-3.14c.35-2.64-2-8.49-2.06-8.55a.37.37,0,1,1,.68-.28c.1.25,2.48,6.09,2.11,8.92a7.58,7.58,0,0,1-1.66,3.48,4.74,4.74,0,0,0-1.28,2.9,11,11,0,0,0,1,3.34A24.62,24.62,0,0,1,44,164.17a.37.37,0,0,1-.32.4Z"/><path class="cls-55" d="M36.36,172.16c-.9-.4-1.19-5.31-2.84-6s-2.84-3-3.39-5.4-5.4-3.39-6.32-6,1.83-4.39,1.65-6.78-2.2-5.77-.73-7.32,4,3.85,5.4,4.94,4,2.29,3.3,4.3.27,5.31,5,7.14S46.34,176.64,36.36,172.16Z"/><path class="cls-57" d="M37.09,163.73a.37.37,0,0,1-.35-.25,9.82,9.82,0,0,0-4.11-5.3A18.63,18.63,0,0,1,30,155.83c-2.66-2.95-1.42-8.08-1.37-8.3a.37.37,0,1,1,.71.18s-1.2,5,1.2,7.63a18.06,18.06,0,0,0,2.58,2.26,10.55,10.55,0,0,1,4.36,5.65.37.37,0,0,1-.23.46Z"/><path class="cls-55" d="M45.24,172.71c.24-.73.49-3.91,2.2-4.64s3.42-1.22,4.76-3.42,0-5.62,1.46-7.94,4.76-.12,6.47-2.44-2.08-6.35-.73-8.06,3.17-6.35,1.34-7-7,2.69-8.3,5.62-4,4.64-4.64,7-2.56,3.54-3.05,5.86.24,5.86-.61,8.42S45.24,172.71,45.24,172.71Z"/><path class="cls-8" d="M49.61,185.89H34.28a2.06,2.06,0,0,1-2.06-2l-.65-16.34H52.32l-.65,16.34A2.06,2.06,0,0,1,49.61,185.89Z"/><path class="cls-58" d="M48.66,164.16h0a.37.37,0,0,1-.34-.39,20.18,20.18,0,0,1,5-12.54c1.76-2.11,2.85-6.17,2.86-6.21a.36.36,0,0,1,.45-.26.37.37,0,0,1,.26.45c0,.17-1.14,4.26-3,6.49A19.5,19.5,0,0,0,49,163.82.37.37,0,0,1,48.66,164.16Z"/><path class="cls-49" d="M123.32,108.3c.17,1.88,3.27,1.08,4.39.53,1.64-.79,3.41-3,3.24-3.66s-3.94,1.61-4.11,1.48,1.7-.91,1.49-1.56-2.84.07-3.76.76A2.41,2.41,0,0,0,123.32,108.3Z"/><path class="cls-49" d="M97.81,91.57a2.73,2.73,0,0,0-1,2.74c.85,4.63,3.95,20.08,7.41,19.71,4.07-.44.5-14-1-17.78C101.9,93.07,99.87,90.1,97.81,91.57Z"/><path class="cls-49" d="M102.93,111.44a2.69,2.69,0,0,1,2-1.55c4.25-.9,19.68-4.06,20.78-2.5,1.28,1.8-20.75,7.37-21.61,6.57C103.39,113.34,102.39,112.75,102.93,111.44Z"/><path class="cls-59" d="M96.47,97.29s3.24,13.12,5.66,16.66c2,3,18.93-2.91,18.93-2.91L120,106.46s-13.1,2.35-13.31,1.87-1.32-7.91-2.64-11.23-3.21-7.32-6.24-6.32S96.47,97.29,96.47,97.29Z"/><path class="cls-8" d="M98.53,90.18a15.93,15.93,0,0,0,.41-13c-1.22-2.68-3.52-4.06-8.14-3.5-6.56.8-4.67,8.35-6.93,12S72.54,89,73.48,95.08s9.24,11.46,9.24,11.46L99.23,94.61Z"/><path class="cls-49" d="M92.89,127.13a3.66,3.66,0,0,0-3.24,4.12,24.37,24.37,0,0,0,1.73,6.49c2.69,6.62,4.09,15,6.86,15.55s4.69-4.15,3.29-11c-1.27-6.19-2-14.13-3.92-14.9A13.59,13.59,0,0,0,92.89,127.13Z"/><path class="cls-49" d="M83.37,125.45a3.66,3.66,0,0,0-4.48,2.71,24.37,24.37,0,0,0-.67,6.68c.18,7.14-1.49,15.51.92,17s5.86-2.23,7-9.13c1-6.24,3.16-13.91,1.6-15.32A13.59,13.59,0,0,0,83.37,125.45Z"/><path class="cls-49" d="M100.37,149.23c-5.3-3.82-5,22.65-3.59,29.8s3,1.26,4.06-10.16S102.46,150.73,100.37,149.23Z"/><path class="cls-49" d="M81.7,149.44c-4.63-4.61-8.51,21.58-8.24,28.86s2.76,1.72,5.61-9.39S83.52,151.25,81.7,149.44Z"/><polygon class="cls-49" points="95.86 177.82 96.19 182.16 99.56 182.16 99.75 178.09 95.86 177.82"/><polygon class="cls-49" points="73.39 175.12 72.37 180.44 75.64 181.27 77.08 176.4 73.39 175.12"/><path class="cls-8" d="M99.77,127s3.65,16.6,3.27,25.4-2.89,26.16-2.89,26.16h-5.8s-.11-24.52-.36-27S89.2,138.4,89.2,138.4l-11.57,38-5.28-.63S75.12,156,76,151.22,74.49,134,78.39,126.07"/><g id="_Group_3" data-name="&lt;Group&gt;"><path class="cls-60" d="M80.76,102.54c-2,7.8-3,23.68-3,23.68,8,5,22.64,1.22,22.64,1.22s.1-4.26.06-9.24c-.06-8.17,4-10.25,4.22-13s-1.07-3.77-1.77-6.1-1.35-6.48-2.41-7.67a7.43,7.43,0,0,0-2.84-1.55l0,.09s1.09,5.52-1.95,5.55c-4.34,0-5.79-3.52-5.91-6.92v-.12C83.95,88.14,82.61,95.14,80.76,102.54Z"/><path class="cls-49" d="M89.83,88.45v.12c.12,3.4,1.57,7,5.91,6.92,3,0,1.95-5.55,1.95-5.55l0-.09-.53-.17c-.45-.14-.75-.22-.75-.22V86.69A2.08,2.08,0,0,0,99,85.5c1-1.83.69-9.94-5.66-8.62s-2.51,8.49-2.51,8.49v3.21l-.42-.06Z"/></g><circle class="cls-61" cx="173.09" cy="70.08" r="33.91" transform="translate(-10.65 36.74) rotate(-11.76)"/><g class="cls-62"><path class="cls-53" d="M150.47,76.73a2,2,0,0,1-1.91-1.55,25.05,25.05,0,0,1,38.26-26.06,1.95,1.95,0,0,1-2.14,3.26,21.15,21.15,0,0,0-32.3,22,2,2,0,0,1-1.91,2.35Z"/></g><polygon class="cls-63" points="65.63 135.99 71.33 144.49 131.56 104.07 148.11 92.98 142.41 84.47 125.88 95.55 65.63 135.99"/><path class="cls-49" d="M131,105.17s-1.08-2.66-3.74-.87a5.4,5.4,0,0,0-2.37,4.74Z"/><path class="cls-64" d="M68.76,120.34h37.95a5.91,5.91,0,0,1,5.91,5.91v2.15a5.92,5.92,0,0,1-5.92,5.92H68.76a5.91,5.91,0,0,1-5.91-5.91v-2.15a5.92,5.92,0,0,1,5.92-5.92Z" transform="translate(231.51 184.27) rotate(146.17)"/><polygon class="cls-8" points="125.88 95.55 131.56 104.07 148.11 92.98 142.41 84.47 125.88 95.55"/><path class="cls-8" d="M141.58,91.19a37.93,37.93,0,1,1,52.63,10.39A38,38,0,0,1,141.58,91.19Zm3.82-2.56a33.34,33.34,0,1,0,9.14-46.25A33.37,33.37,0,0,0,145.4,88.63Z"/><path class="cls-8" d="M98.93,77.22s-.64,3.34-3.33,3.72-4.17.39-4,1.48,1,6-.69,6.13S86,87.3,86,87.3l1.93-10.75,8.16-.75Z"/><path class="cls-8" d="M99.6,181a22.63,22.63,0,0,0,3.86,3.5c2.64,2,3.32,1.54,3.39,2.28s-10.9.19-10.9.19l.11-6.12A26.3,26.3,0,0,1,99.6,181Z"/><path class="cls-8" d="M76.08,179.38a22.62,22.62,0,0,0,2.63,4.49c1.93,2.68,2.71,2.46,2.55,3.19S70.8,184,70.8,184l1.94-5.8A26.3,26.3,0,0,1,76.08,179.38Z"/><path class="cls-65" d="M89.82,88.58c.12,3.4,1.57,7,5.91,6.92,3,0,1.95-5.55,1.95-5.55l0-.09-.53-.17c.14,1,.6,5.38-1.77,5.31-2.63-.08-4.74-2.44-5-6.47l-.57-.06Z"/><path class="cls-49" d="M87.27,89.52a2.73,2.73,0,0,0-2.39,1.67c-1.94,4.28-8.21,18.75-5.16,20.41,3.59,2,8.39-11.2,9.3-15.19C89.77,93.09,89.8,89.49,87.27,89.52Z"/><path class="cls-49" d="M91.72,126.58c-1.68.88.16,3.6.82,4.5,1.08,1.47,1.91,1.45,2.82.7.56-.46-.83-2.36-.78-2.57s1.49,1.23,2,.78-1.14-2.6-2.14-3.19A2.41,2.41,0,0,0,91.72,126.58Z"/><path class="cls-49" d="M80.86,109A2.69,2.69,0,0,1,83,110.18c2.45,3.59,11.24,16.65,10.22,18.26C92.08,130.31,78.55,112.05,79,111,79.28,110.1,79.44,108.95,80.86,109Z"/><path class="cls-66" d="M83,93.86s-4.63,10.79-4.74,15.08c-.09,3.62,7.24,12.47,7.24,12.47l3.87-2.74s-5.63-7.83-5.52-8.35,4.52-8.74,5.39-12.2,1.68-7.82-1.37-8.78S83,93.86,83,93.86Z"/><path class="cls-55" d="M248.72,55.74a13.73,13.73,0,0,0-1.6-4A14.05,14.05,0,0,0,242.49,47a13.86,13.86,0,0,0-4-1.7,14.09,14.09,0,0,0-6.62-.07,13.85,13.85,0,0,0-4,1.6,14.05,14.05,0,0,0-4.73,4.63A14,14,0,0,0,223,66a14,14,0,0,0,4.63,4.74,13.83,13.83,0,0,0,4,1.7,14.11,14.11,0,0,0,6.62.07,13.64,13.64,0,0,0,4-1.6,14,14,0,0,0,4.74-4.63,13.71,13.71,0,0,0,1.7-4,14.09,14.09,0,0,0,.07-6.62ZM227.29,58.9a7.78,7.78,0,1,1,7.78,7.78A7.78,7.78,0,0,1,227.29,58.9Z"/><rect class="cls-55" x="231.91" y="42.19" width="6.62" height="7.85" rx="1.7" ry="1.7"/><rect class="cls-55" x="222.82" y="45.82" width="6.62" height="7.85" rx="1.7" ry="1.7" transform="translate(31.06 174.47) rotate(-45)"/><rect class="cls-55" x="218.97" y="54.82" width="6.62" height="7.85" rx="1.7" ry="1.7" transform="translate(163.54 281.03) rotate(-90)"/><rect class="cls-55" x="222.61" y="63.9" width="6.62" height="7.85" rx="1.7" ry="1.7" transform="translate(337.71 275.53) rotate(-135)"/><rect class="cls-55" x="231.6" y="67.75" width="6.62" height="7.85" rx="1.7" ry="1.7" transform="translate(469.82 143.35) rotate(180)"/><rect class="cls-55" x="240.68" y="64.12" width="6.62" height="7.85" rx="1.7" ry="1.7" transform="translate(464.64 -56.37) rotate(135)"/><rect class="cls-55" x="244.54" y="55.12" width="6.62" height="7.85" rx="1.7" ry="1.7" transform="translate(306.9 -188.8) rotate(90)"/><rect class="cls-55" x="240.9" y="46.04" width="6.62" height="7.85" rx="1.7" ry="1.7" transform="translate(106.86 -158.05) rotate(45)"/><path class="cls-55" d="M247,21.55a8,8,0,0,0-.93-2.31,8.13,8.13,0,0,0-2.68-2.74,8,8,0,0,0-2.29-1,8.16,8.16,0,0,0-3.83,0,8,8,0,0,0-2.31.93,8.13,8.13,0,0,0-2.74,2.68,8.12,8.12,0,0,0-.1,8.43,8.13,8.13,0,0,0,2.68,2.74,8,8,0,0,0,2.29,1,8.17,8.17,0,0,0,3.83,0,7.9,7.9,0,0,0,2.31-.93,8.12,8.12,0,0,0,2.74-2.68,7.93,7.93,0,0,0,1-2.29,8.16,8.16,0,0,0,0-3.83Zm-12.4,1.83a4.5,4.5,0,1,1,4.5,4.5A4.5,4.5,0,0,1,234.55,23.38Z"/><rect class="cls-55" x="237.23" y="13.71" width="3.83" height="4.55" rx="0.98" ry="0.98"/><rect class="cls-55" x="231.97" y="15.81" width="3.83" height="4.55" rx="0.98" ry="0.98" transform="translate(55.72 170.68) rotate(-45)"/><rect class="cls-55" x="229.74" y="21.01" width="3.83" height="4.55" rx="0.98" ry="0.98" transform="translate(208.37 254.94) rotate(-90)"/><rect class="cls-55" x="231.84" y="26.27" width="3.83" height="4.55" rx="0.98" ry="0.98" transform="translate(378.87 214.02) rotate(-135)"/><rect class="cls-55" x="237.05" y="28.5" width="3.83" height="4.55" rx="0.98" ry="0.98" transform="translate(477.93 61.54) rotate(180)"/><rect class="cls-55" x="242.3" y="26.4" width="3.83" height="4.55" rx="0.98" ry="0.98" transform="translate(437.18 -123.75) rotate(135)"/><rect class="cls-55" x="244.53" y="21.19" width="3.83" height="4.55" rx="0.98" ry="0.98" transform="translate(269.91 -222.99) rotate(90)"/><rect class="cls-55" x="242.43" y="15.94" width="3.83" height="4.55" rx="0.98" ry="0.98" transform="translate(84.45 -167.45) rotate(45)"/><g class="cls-67"><path class="cls-48" d="M112.91,37.82h-4a4.33,4.33,0,0,0-4.05-2.22c-3.09,0-5.24,2.2-5.24,5.63s2.17,5.68,5.38,5.68a4.68,4.68,0,0,0,4.89-4H104V40.29h9.34v3A8.43,8.43,0,0,1,104.91,50a8.53,8.53,0,0,1-8.82-8.79,8.55,8.55,0,0,1,8.79-8.82C108.74,32.41,111.8,34.36,112.91,37.82Z"/><path class="cls-48" d="M121.85,50c-3.58,0-6.35-1.88-6.4-5.14h3.7a2.37,2.37,0,0,0,2.62,2.3c1.63,0,2.59-.86,2.59-2.1,0-3.73-8.89-1.48-8.87-7.73,0-3.11,2.52-5,6.08-5s6,1.8,6.17,4.91H124a2.28,2.28,0,0,0-2.47-2c-1.36,0-2.37.62-2.37,2,0,3.46,8.84,1.53,8.84,7.61C128,47.6,125.78,50,121.85,50Z"/><path class="cls-48" d="M130,32.63h12.65v2.79h-4.59V49.87h-3.46V35.42H130Z"/></g><path class="cls-68" d="M124.08,183.62c-9.14,0-16.56,1-16.56,2.23v3.66c0,1.23,7.41,2.23,16.56,2.23s16.56-1,16.56-2.23v-3.66C140.64,184.62,133.22,183.62,124.08,183.62Z"/><path class="cls-69" d="M124.08,192.36a93,93,0,0,1-11.79-.66,22.63,22.63,0,0,1-3.65-.73c-.8-.26-1.72-.65-1.72-1.45v-3.66h1.22v3.55c.17.14,1.06.68,4.91,1.15a106.54,106.54,0,0,0,22.07,0c3.85-.47,4.74-1,4.91-1.15v-3.55h1.22v3.66c0,.8-.92,1.19-1.72,1.45a22.63,22.63,0,0,1-3.65.73A93,93,0,0,1,124.08,192.36Z"/><path class="cls-69" d="M124.08,188.7a92.94,92.94,0,0,1-11.79-.66,22.63,22.63,0,0,1-3.65-.73c-.8-.26-1.72-.65-1.72-1.45s.92-1.19,1.72-1.45a22.63,22.63,0,0,1,3.65-.73,92.94,92.94,0,0,1,11.79-.66,92.94,92.94,0,0,1,11.79.66,22.63,22.63,0,0,1,3.65.73c.8.26,1.72.65,1.72,1.45s-.92,1.19-1.72,1.45a22.63,22.63,0,0,1-3.65.73A92.94,92.94,0,0,1,124.08,188.7Zm-15.79-2.84c.39.22,1.54.66,4.76,1.05a106.54,106.54,0,0,0,22.07,0c3.21-.39,4.36-.83,4.76-1.05-.39-.22-1.54-.66-4.76-1.05a106.53,106.53,0,0,0-22.07,0C109.83,185.2,108.68,185.64,108.28,185.86Z"/><path class="cls-68" d="M126.64,179.56c-9.14,0-16.56,1-16.56,2.23v3.66c0,1.23,7.41,2.23,16.56,2.23s16.56-1,16.56-2.23v-3.66C143.19,180.56,135.78,179.56,126.64,179.56Z"/><path class="cls-69" d="M126.64,188.29a92.94,92.94,0,0,1-11.79-.66,22.63,22.63,0,0,1-3.65-.73c-.8-.26-1.72-.65-1.72-1.45v-3.66h1.22v3.55c.17.14,1.06.68,4.91,1.15a106.54,106.54,0,0,0,22.07,0c3.85-.47,4.74-1,4.91-1.15v-3.55h1.22v3.66c0,.8-.92,1.19-1.72,1.45a22.63,22.63,0,0,1-3.65.73A92.94,92.94,0,0,1,126.64,188.29Z"/><path class="cls-69" d="M126.64,184.64a92.94,92.94,0,0,1-11.79-.66,22.63,22.63,0,0,1-3.65-.73c-.8-.26-1.72-.65-1.72-1.45s.92-1.19,1.72-1.45a22.63,22.63,0,0,1,3.65-.73,92.94,92.94,0,0,1,11.79-.66,92.94,92.94,0,0,1,11.79.66,22.63,22.63,0,0,1,3.65.73c.8.26,1.72.65,1.72,1.45s-.92,1.19-1.72,1.45a22.63,22.63,0,0,1-3.65.73A92.94,92.94,0,0,1,126.64,184.64Zm-15.79-2.84c.39.22,1.54.66,4.76,1.05a106.54,106.54,0,0,0,22.07,0c3.21-.39,4.36-.83,4.76-1.05-.39-.22-1.54-.66-4.76-1.05a106.54,106.54,0,0,0-22.07,0C112.38,181.13,111.24,181.57,110.84,181.79Z"/><path class="cls-68" d="M124.08,175.49c-9.14,0-16.56,1-16.56,2.23v3.66c0,1.23,7.41,2.23,16.56,2.23s16.56-1,16.56-2.23v-3.66C140.64,176.5,133.22,175.49,124.08,175.49Z"/><path class="cls-69" d="M124.08,184.23a92.94,92.94,0,0,1-11.79-.66,22.63,22.63,0,0,1-3.65-.73c-.8-.26-1.72-.65-1.72-1.45v-3.66h1.22v3.55c.17.14,1.06.68,4.91,1.15a106.54,106.54,0,0,0,22.07,0c3.85-.47,4.74-1,4.91-1.15v-3.55h1.22v3.66c0,.8-.92,1.19-1.72,1.45a22.63,22.63,0,0,1-3.65.73A92.94,92.94,0,0,1,124.08,184.23Z"/><path class="cls-69" d="M124.08,180.57a93,93,0,0,1-11.79-.66,22.63,22.63,0,0,1-3.65-.73c-.8-.26-1.72-.65-1.72-1.45s.92-1.19,1.72-1.45a22.63,22.63,0,0,1,3.65-.73,93,93,0,0,1,11.79-.66,93,93,0,0,1,11.79.66,22.63,22.63,0,0,1,3.65.73c.8.26,1.72.65,1.72,1.45s-.92,1.19-1.72,1.45a22.63,22.63,0,0,1-3.65.73A93,93,0,0,1,124.08,180.57Zm-15.79-2.84c.39.22,1.54.66,4.76,1.05a106.54,106.54,0,0,0,22.07,0c3.21-.39,4.36-.83,4.76-1.05-.39-.22-1.54-.66-4.76-1.05a106.54,106.54,0,0,0-22.07,0C109.83,177.07,108.68,177.51,108.28,177.73Z"/><path class="cls-68" d="M125.83,171.43c-9.14,0-16.56,1-16.56,2.23v3.66c0,1.23,7.41,2.23,16.56,2.23s16.56-1,16.56-2.23v-3.66C142.39,172.43,135,171.43,125.83,171.43Z"/><path class="cls-69" d="M125.83,180.17a92.94,92.94,0,0,1-11.79-.66,22.62,22.62,0,0,1-3.65-.73c-.8-.26-1.72-.65-1.72-1.45v-3.66h1.22v3.55c.17.14,1.06.68,4.91,1.15a106.54,106.54,0,0,0,22.07,0c3.85-.47,4.74-1,4.91-1.15v-3.55H143v3.66c0,.8-.92,1.19-1.72,1.45a22.62,22.62,0,0,1-3.65.73A92.94,92.94,0,0,1,125.83,180.17Z"/><path class="cls-69" d="M125.83,176.51a92.94,92.94,0,0,1-11.79-.66,22.63,22.63,0,0,1-3.65-.73c-.8-.26-1.72-.65-1.72-1.45s.92-1.19,1.72-1.45a22.62,22.62,0,0,1,3.65-.73,92.94,92.94,0,0,1,11.79-.66,92.94,92.94,0,0,1,11.79.66,22.62,22.62,0,0,1,3.65.73c.8.26,1.72.65,1.72,1.45s-.92,1.19-1.72,1.45a22.63,22.63,0,0,1-3.65.73A92.94,92.94,0,0,1,125.83,176.51ZM110,173.67c.39.22,1.54.66,4.76,1.05a106.54,106.54,0,0,0,22.07,0c3.21-.39,4.36-.83,4.76-1.05-.39-.22-1.54-.66-4.76-1.05a106.54,106.54,0,0,0-22.07,0C111.58,173,110.43,173.45,110,173.67Z"/><path class="cls-68" d="M169.13,185.16c-9.14,0-16.56,1-16.56,2.23v3.66c0,1.23,7.41,2.23,16.56,2.23s16.56-1,16.56-2.23V187.4C185.69,186.16,178.28,185.16,169.13,185.16Z"/><path class="cls-69" d="M169.13,193.9a92.94,92.94,0,0,1-11.79-.66,22.63,22.63,0,0,1-3.65-.73c-.8-.26-1.72-.65-1.72-1.45V187.4h1.22v3.55c.17.14,1.06.68,4.91,1.15a106.54,106.54,0,0,0,22.07,0c3.85-.47,4.74-1,4.91-1.15V187.4h1.22v3.66c0,.8-.92,1.19-1.72,1.45a22.64,22.64,0,0,1-3.65.73A92.94,92.94,0,0,1,169.13,193.9Z"/><path class="cls-69" d="M169.13,190.24a92.94,92.94,0,0,1-11.79-.66,22.63,22.63,0,0,1-3.65-.73c-.8-.26-1.72-.65-1.72-1.45s.92-1.19,1.72-1.45a22.63,22.63,0,0,1,3.65-.73,105.63,105.63,0,0,1,23.58,0,22.63,22.63,0,0,1,3.65.73c.8.26,1.72.65,1.72,1.45s-.92,1.19-1.72,1.45a22.64,22.64,0,0,1-3.65.73A92.94,92.94,0,0,1,169.13,190.24Zm-15.79-2.84c.39.22,1.54.66,4.76,1.05a106.54,106.54,0,0,0,22.07,0c3.21-.39,4.36-.83,4.76-1.05-.39-.22-1.54-.66-4.76-1.05a106.53,106.53,0,0,0-22.07,0C154.88,186.74,153.73,187.18,153.34,187.4Z"/><path class="cls-68" d="M162.59,181.1c-9.14,0-16.56,1-16.56,2.23V187c0,1.23,7.41,2.23,16.56,2.23s16.56-1,16.56-2.23v-3.66C179.14,182.1,171.73,181.1,162.59,181.1Z"/><path class="cls-69" d="M162.59,189.83a92.94,92.94,0,0,1-11.79-.66,22.63,22.63,0,0,1-3.65-.73c-.8-.26-1.72-.65-1.72-1.45v-3.66h1.22v3.55c.17.14,1.06.68,4.91,1.15a106.53,106.53,0,0,0,22.07,0c3.85-.47,4.74-1,4.91-1.15v-3.55h1.22V187c0,.8-.92,1.19-1.72,1.45a22.63,22.63,0,0,1-3.65.73A92.94,92.94,0,0,1,162.59,189.83Z"/><path class="cls-69" d="M162.59,186.18a93,93,0,0,1-11.79-.66,22.63,22.63,0,0,1-3.65-.73c-.8-.26-1.72-.65-1.72-1.45s.92-1.19,1.72-1.45a22.63,22.63,0,0,1,3.65-.73,105.64,105.64,0,0,1,23.58,0,22.63,22.63,0,0,1,3.65.73c.8.26,1.72.65,1.72,1.45s-.92,1.19-1.72,1.45a22.63,22.63,0,0,1-3.65.73A93,93,0,0,1,162.59,186.18Zm-15.79-2.84c.39.22,1.54.66,4.76,1.05a106.53,106.53,0,0,0,22.07,0c3.21-.39,4.36-.83,4.76-1.05-.39-.22-1.54-.66-4.76-1.05a106.53,106.53,0,0,0-22.07,0C148.33,182.67,147.18,183.11,146.79,183.33Z"/><path class="cls-68" d="M159,177.53c-9.14,0-16.56,1-16.56,2.23v3.66c0,1.23,7.41,2.23,16.56,2.23s16.56-1,16.56-2.23v-3.66C175.61,178.53,168.19,177.53,159,177.53Z"/><path class="cls-69" d="M159,186.26a92.94,92.94,0,0,1-11.79-.66,22.63,22.63,0,0,1-3.65-.73c-.8-.26-1.72-.65-1.72-1.45v-3.66h1.22v3.55c.17.14,1.06.68,4.91,1.15a106.54,106.54,0,0,0,22.07,0c3.85-.47,4.74-1,4.91-1.15v-3.55h1.22v3.66c0,.8-.92,1.19-1.72,1.45a22.63,22.63,0,0,1-3.65.73A92.94,92.94,0,0,1,159,186.26Z"/><path class="cls-69" d="M159,182.61a93,93,0,0,1-11.79-.66,22.63,22.63,0,0,1-3.65-.73c-.8-.26-1.72-.65-1.72-1.45s.92-1.19,1.72-1.45a22.63,22.63,0,0,1,3.65-.73,105.64,105.64,0,0,1,23.58,0,22.63,22.63,0,0,1,3.65.73c.8.26,1.72.65,1.72,1.45s-.92,1.19-1.72,1.45a22.63,22.63,0,0,1-3.65.73A93,93,0,0,1,159,182.61Zm-15.79-2.84c.39.22,1.54.66,4.76,1.05a106.54,106.54,0,0,0,22.07,0c3.21-.39,4.36-.83,4.76-1.05-.39-.22-1.54-.66-4.76-1.05a106.54,106.54,0,0,0-22.07,0C144.8,179.1,143.65,179.55,143.26,179.76Z"/><path class="cls-68" d="M160.8,173.47c-9.14,0-16.56,1-16.56,2.23v3.66c0,1.23,7.41,2.23,16.56,2.23s16.56-1,16.56-2.23V175.7C177.36,174.47,169.95,173.47,160.8,173.47Z"/><path class="cls-69" d="M160.8,182.2a92.94,92.94,0,0,1-11.79-.66,22.62,22.62,0,0,1-3.65-.73c-.8-.26-1.72-.65-1.72-1.45V175.7h1.22v3.55c.17.14,1.06.68,4.91,1.15a106.54,106.54,0,0,0,22.07,0c3.85-.47,4.74-1,4.91-1.15V175.7H178v3.66c0,.8-.92,1.19-1.72,1.45a22.62,22.62,0,0,1-3.65.73A92.94,92.94,0,0,1,160.8,182.2Z"/><path class="cls-69" d="M160.8,178.54a92.94,92.94,0,0,1-11.79-.66,22.63,22.63,0,0,1-3.65-.73c-.8-.26-1.72-.65-1.72-1.45s.92-1.19,1.72-1.45a22.62,22.62,0,0,1,3.65-.73,105.63,105.63,0,0,1,23.58,0,22.62,22.62,0,0,1,3.65.73c.8.26,1.72.65,1.72,1.45s-.92,1.19-1.72,1.45a22.63,22.63,0,0,1-3.65.73A92.94,92.94,0,0,1,160.8,178.54ZM145,175.7c.39.22,1.54.66,4.76,1.05a106.54,106.54,0,0,0,22.07,0c3.21-.39,4.36-.83,4.76-1.05-.39-.22-1.54-.66-4.76-1.05a106.54,106.54,0,0,0-22.07,0C146.55,175,145.4,175.48,145,175.7Z"/><path class="cls-68" d="M127.24,166.91c-9.14,0-16.56,1-16.56,2.23v3.66c0,1.23,7.41,2.23,16.56,2.23s16.56-1,16.56-2.23v-3.66C143.8,167.91,136.39,166.91,127.24,166.91Z"/><path class="cls-69" d="M127.24,175.64a92.94,92.94,0,0,1-11.79-.66,22.63,22.63,0,0,1-3.65-.73c-.8-.26-1.72-.65-1.72-1.45v-3.66h1.22v3.55c.17.14,1.06.68,4.91,1.15a106.54,106.54,0,0,0,22.07,0c3.85-.47,4.74-1,4.91-1.15v-3.55h1.22v3.66c0,.8-.92,1.19-1.72,1.45A22.63,22.63,0,0,1,139,175,92.94,92.94,0,0,1,127.24,175.64Z"/><path class="cls-69" d="M127.24,172a93,93,0,0,1-11.79-.66,22.63,22.63,0,0,1-3.65-.73c-.8-.26-1.72-.65-1.72-1.45s.92-1.19,1.72-1.45a22.63,22.63,0,0,1,3.65-.73,93,93,0,0,1,11.79-.66A93,93,0,0,1,139,167a22.63,22.63,0,0,1,3.65.73c.8.26,1.72.65,1.72,1.45s-.92,1.19-1.72,1.45a22.63,22.63,0,0,1-3.65.73A93,93,0,0,1,127.24,172Zm-15.79-2.84c.39.22,1.54.66,4.76,1.05a106.54,106.54,0,0,0,22.07,0c3.21-.39,4.36-.83,4.76-1.05-.39-.22-1.54-.66-4.76-1.05a106.54,106.54,0,0,0-22.07,0C113,168.48,111.84,168.92,111.45,169.14Z"/><path class="cls-68" d="M129,162.84c-9.14,0-16.56,1-16.56,2.23v3.66c0,1.23,7.41,2.23,16.56,2.23s16.56-1,16.56-2.23v-3.66C145.56,163.84,138.14,162.84,129,162.84Z"/><path class="cls-69" d="M129,171.58a92.94,92.94,0,0,1-11.79-.66,22.62,22.62,0,0,1-3.65-.73c-.8-.26-1.72-.65-1.72-1.45v-3.66H113v3.55c.17.14,1.06.68,4.91,1.15a106.54,106.54,0,0,0,22.07,0c3.85-.47,4.74-1,4.91-1.15v-3.55h1.22v3.66c0,.8-.92,1.19-1.72,1.45a22.62,22.62,0,0,1-3.65.73A92.94,92.94,0,0,1,129,171.58Z"/><path class="cls-69" d="M129,167.92a92.94,92.94,0,0,1-11.79-.66,22.63,22.63,0,0,1-3.65-.73c-.8-.26-1.72-.65-1.72-1.45s.92-1.19,1.72-1.45a22.62,22.62,0,0,1,3.65-.73,92.94,92.94,0,0,1,11.79-.66,92.94,92.94,0,0,1,11.79.66,22.62,22.62,0,0,1,3.65.73c.8.26,1.72.65,1.72,1.45s-.92,1.19-1.72,1.45a22.63,22.63,0,0,1-3.65.73A92.94,92.94,0,0,1,129,167.92Zm-15.79-2.84c.39.22,1.54.66,4.76,1.05a106.54,106.54,0,0,0,22.07,0c3.21-.39,4.36-.83,4.76-1.05-.39-.22-1.54-.66-4.76-1.05A106.54,106.54,0,0,0,118,164C114.75,164.42,113.6,164.86,113.21,165.08Z"/><path class="cls-50" d="M246.36,94.95h-3.22c-.44,0-.48,0-.48-.47,0-.92-.15-.87.87-.87h2.32l.4,0a1.87,1.87,0,0,0-1.58-.86c-.49,0-1,0-1.48,0s-.52,0-.52-.54c0-.23,0-.46,0-.69s.15-.36.41-.36h3.11c1.1,0,2.19,0,3.29,0,.33,0,.45.11.44.44,0,1,.07.89-.87.89h-1.22c.15.38.27.72.43,1.06,0,.07.17.11.26.12.34,0,.68,0,1,0s.39.09.39.38c0,1.06.12,1-.93,1h-.67c-.36,1.76-1.58,2.53-3.28,2.79.47.53.92,1,1.35,1.54q1.15,1.35,2.27,2.72a.41.41,0,0,1,.09.34c0,.08-.21.11-.32.15h0a4.13,4.13,0,0,1-1.53-.06c-.42-.19-.68-.73-1-1.11L242.92,98a2.07,2.07,0,0,1-.24-1.52.58.58,0,0,1,.4-.16c.63-.06,1.28,0,1.9-.16A1.66,1.66,0,0,0,246.36,94.95Z"/><path class="cls-50" d="M257.44,94.95h-3.22c-.44,0-.48,0-.48-.47,0-.92-.15-.87.87-.87h2.32l.4,0a1.87,1.87,0,0,0-1.58-.86c-.49,0-1,0-1.48,0s-.52,0-.52-.54c0-.23,0-.46,0-.69s.15-.36.41-.36h3.11c1.1,0,2.19,0,3.29,0,.33,0,.45.11.44.44,0,1,.07.89-.87.89H258.9c.15.38.27.72.43,1.06,0,.07.17.11.26.12.34,0,.68,0,1,0s.39.09.39.38c0,1.06.12,1-.93,1h-.67c-.36,1.76-1.58,2.53-3.28,2.79.47.53.92,1,1.35,1.54q1.15,1.35,2.27,2.72a.41.41,0,0,1,.09.34c0,.08-.21.11-.32.15h0a4.13,4.13,0,0,1-1.53-.06c-.42-.19-.68-.73-1-1.11L254,98a2.07,2.07,0,0,1-.24-1.52.58.58,0,0,1,.4-.16c.63-.06,1.28,0,1.9-.16A1.66,1.66,0,0,0,257.44,94.95Z"/></g></g></svg>